<svg width="181" height="29" viewBox="0 0 181 29" fill="none" xmlns="http://www.w3.org/2000/svg">
<g clip-path="url(#clip0_761_7797)">
<path d="M171.345 28.5H6.42201C3.01925 28.5 0.488147 25.2471 1.21571 21.8071L4.80271 4.8777C5.34248 2.34711 7.50508 0.543579 10.009 0.543579H174.932C178.335 0.543579 180.866 3.79887 180.139 7.23887L176.552 24.1683C176.012 26.6989 173.849 28.5 171.345 28.5Z" fill="white"/>
<path d="M15.3678 21.0481C12.8481 21.0481 10.9757 20.3352 9.75049 18.9093L12.5143 15.8846C13.4308 17.0407 14.7099 17.6187 16.3517 17.6187C17.3241 17.6187 17.8658 17.3768 17.9769 16.8928C18.0288 16.6646 17.8162 16.4893 17.3391 16.3693C16.8619 16.2493 16.2761 16.1199 15.5946 15.9858C14.9091 15.8494 14.2372 15.6526 13.5867 15.3975C12.932 15.1448 12.3913 14.6647 12.0643 14.0458C11.7036 13.4073 11.6359 12.5952 11.8611 11.6093C12.1414 10.3858 12.8647 9.33715 14.0308 8.46342C15.1969 7.5897 16.634 7.15283 18.3418 7.15283C20.5615 7.15283 22.2765 7.77793 23.4867 9.02813L20.6969 11.9117C19.7584 11.0246 18.5729 10.5811 17.1406 10.5811C16.4714 10.5811 16.0903 10.7826 15.9973 11.1858C15.9532 11.374 16.0966 11.5352 16.4273 11.6693C16.839 11.8247 17.2681 11.9297 17.7052 11.9822C18.2731 12.0661 18.8324 12.2 19.3765 12.3822C19.9324 12.5619 20.4696 12.7947 20.9804 13.0775C21.4713 13.3619 21.8472 13.8079 22.0434 14.3387C22.2733 14.9105 22.2989 15.5862 22.1202 16.3658C21.78 17.845 21.0135 18.9944 19.8206 19.814C18.6277 20.6336 17.1434 21.045 15.3678 21.0481Z" fill="#0FAE6F"/>
<path d="M34.4047 19.1011C32.7338 20.3984 30.874 21.0474 28.8252 21.0482C26.7764 21.049 25.2142 20.3999 24.1386 19.1011C23.0638 17.8047 22.761 16.1341 23.2303 14.0894C23.6702 12.0929 24.808 10.3171 26.4405 9.07877C28.1106 7.78073 29.9705 7.13171 32.0201 7.13171C34.0697 7.13171 35.6315 7.78073 36.7055 9.07877C37.7803 10.3768 38.0831 12.047 37.6138 14.0894C37.1752 16.0864 36.0377 17.8629 34.4047 19.1011ZM27.5957 16.4894C28.0311 17.1356 28.7153 17.4584 29.6484 17.4576C30.574 17.461 31.4666 17.115 32.1464 16.4894C32.8677 15.8625 33.3671 15.021 33.5709 14.0894C33.7905 13.1349 33.6823 12.3352 33.2461 11.6905C32.8098 11.0458 32.1252 10.7231 31.1921 10.7223C30.2665 10.7189 29.374 11.0649 28.6941 11.6905C27.9726 12.3173 27.4721 13.1581 27.2661 14.0894C27.0504 15.0447 27.1602 15.8447 27.5957 16.4894Z" fill="#0FAE6F"/>
<path d="M46.4555 20.8059H37.4897L40.5795 7.35413H44.5551L42.2803 17.2565H47.2716L46.4555 20.8059Z" fill="#0FAE6F"/>
<path d="M59.6639 19.1011C57.9923 20.3984 56.1324 21.0474 54.0844 21.0482C52.0363 21.049 50.4741 20.3999 49.3978 19.1011C48.323 17.8047 48.0206 16.1341 48.4907 14.0894C48.9302 12.093 50.0675 10.3172 51.6997 9.07877C53.3698 7.78073 55.2297 7.13171 57.2793 7.13171C59.3289 7.13171 60.8907 7.78073 61.9647 9.07877C63.0395 10.3768 63.3423 12.047 62.873 14.0894C62.4344 16.0864 61.2969 17.8629 59.6639 19.1011ZM52.8548 16.4894C53.2903 17.1356 53.9749 17.4584 54.9088 17.4576C55.8343 17.4604 56.7266 17.1145 57.4068 16.4894C58.1286 15.8624 58.6292 15.0211 58.8348 14.0894C59.0537 13.1349 58.945 12.3352 58.5088 11.6905C58.0726 11.0458 57.3879 10.7231 56.4548 10.7223C55.5292 10.7189 54.6367 11.0649 53.9568 11.6905C53.2353 12.3173 52.7348 13.1581 52.5289 14.0894C52.3108 15.0447 52.4194 15.8447 52.8548 16.4894Z" fill="#0FAE6F"/>
<path d="M72.8214 21.0482C70.3017 21.0482 68.4293 20.3353 67.2041 18.9094L69.9679 15.8847C70.8844 17.0408 72.1636 17.6188 73.8053 17.6188C74.7777 17.6188 75.3195 17.3769 75.4305 16.8929C75.4824 16.6647 75.2698 16.4894 74.7915 16.3694C74.3132 16.2494 73.7285 16.12 73.0482 15.9859C72.3627 15.8497 71.6907 15.6528 71.0403 15.3976C70.3856 15.1449 69.8449 14.6648 69.5179 14.0459C69.1604 13.4012 69.0943 12.5878 69.3195 11.6059C69.6006 10.3824 70.3242 9.33373 71.4903 8.46C72.6565 7.58628 74.0935 7.14941 75.8013 7.14941C78.0202 7.14941 79.7352 7.77451 80.9462 9.02471L78.1506 11.9118C77.2112 11.0247 76.0258 10.5812 74.5943 10.5812C73.9242 10.5812 73.5431 10.7827 73.451 11.1859C73.4076 11.3741 73.5509 11.5353 73.8809 11.6694C74.2926 11.8248 74.7217 11.9298 75.1588 11.9824C75.7267 12.0662 76.286 12.2001 76.8301 12.3824C77.3857 12.5618 77.9225 12.7946 78.4328 13.0776C78.9239 13.3618 79.2999 13.8079 79.4958 14.3388C79.7265 14.9106 79.7521 15.5863 79.5726 16.3659C79.2309 17.8475 78.4639 18.998 77.2718 19.8176C76.0797 20.6373 74.5962 21.0475 72.8214 21.0482Z" fill="#0FAE6F"/>
<path d="M91.5088 19.4647C90.1757 20.5196 88.4387 21.0475 86.2978 21.0482C84.1568 21.049 82.6607 20.5212 81.8096 19.4647C80.9544 18.4098 80.7261 17.0149 81.1245 15.28L82.9411 7.35413H86.9804L85.1934 15.1388C85.0359 15.8102 85.1218 16.3647 85.4509 16.8024C85.78 17.24 86.3375 17.4584 87.1233 17.4577C87.8981 17.4577 88.5493 17.2392 89.0769 16.8024C89.596 16.3783 89.9564 15.7922 90.0997 15.1388L91.8867 7.35413H95.9261L94.1107 15.26C93.7084 17.0075 92.8411 18.409 91.5088 19.4647Z" fill="#0FAE6F"/>
<path d="M106.726 20.8059H102.193L101.353 16.5706H99.9157L98.9437 20.8059H94.9634L98.052 7.35413H105.067C106.551 7.35413 107.609 7.79452 108.241 8.6753C108.874 9.55609 109.038 10.6541 108.735 11.9694C108.494 13.018 108.063 13.8784 107.443 14.5506C106.882 15.1783 106.199 15.6858 105.435 16.0424L106.726 20.8059ZM103.154 13.0212C103.503 13.0266 103.847 12.9319 104.143 12.7482C104.286 12.6608 104.409 12.5449 104.505 12.4079C104.601 12.2708 104.667 12.1156 104.7 11.9518C104.779 11.6161 104.714 11.3573 104.504 11.1753C104.26 10.982 103.953 10.8852 103.641 10.9035H101.217L100.731 13.0212H103.154Z" fill="#0FAE6F"/>
<path d="M116.557 20.8059H111.553L109.796 7.35413H114.307L115.066 16.4129L119.981 7.35413H124.494L116.557 20.8059Z" fill="#0FAE6F"/>
<path d="M126.094 20.8059H122.115L125.203 7.35413H129.184L126.094 20.8059Z" fill="#0FAE6F"/>
<path d="M136.655 20.8059H131.651L129.892 7.35413H134.404L135.162 16.4129L140.079 7.35413H144.595L136.655 20.8059Z" fill="#0FAE6F"/>
<path d="M153.824 19.1011C152.152 20.3984 150.292 21.0474 148.244 21.0482C146.196 21.049 144.634 20.3999 143.559 19.1011C142.482 17.8047 142.18 16.1341 142.65 14.0894C143.09 12.093 144.227 10.3172 145.86 9.07877C147.53 7.78073 149.39 7.13171 151.439 7.13171C153.488 7.13171 155.05 7.78073 156.125 9.07877C157.199 10.3768 157.502 12.047 157.033 14.0894C156.594 16.0864 155.457 17.8629 153.824 19.1011ZM147.015 16.4894C147.451 17.1356 148.136 17.4584 149.069 17.4576C149.994 17.4604 150.886 17.1145 151.567 16.4894C152.288 15.8624 152.789 15.0211 152.995 14.0894C153.213 13.1349 153.105 12.3352 152.669 11.6905C152.232 11.0458 151.549 10.7231 150.618 10.7223C149.693 10.7195 148.8 11.0654 148.12 11.6905C147.399 12.3173 146.898 13.1581 146.692 14.0894C146.475 15.0447 146.582 15.8447 147.015 16.4894Z" fill="#0FAE6F"/>
<path d="M168.673 20.8059H164.141L163.301 16.5706H161.862L160.889 20.8059H156.91L159.998 7.35413H167.013C168.497 7.35413 169.554 7.79452 170.187 8.6753C170.819 9.55609 170.984 10.6541 170.682 11.9694C170.441 13.018 170.01 13.8784 169.388 14.5506C168.827 15.1784 168.144 15.6859 167.38 16.0424L168.673 20.8059ZM165.101 13.0212C165.45 13.0265 165.793 12.9318 166.089 12.7482C166.232 12.6606 166.355 12.5446 166.451 12.4076C166.547 12.2706 166.614 12.1155 166.647 11.9518C166.724 11.6165 166.658 11.3635 166.451 11.1753C166.206 10.982 165.899 10.8852 165.587 10.9035H163.164L162.677 13.0212H165.101Z" fill="#0FAE6F"/>
</g>
<defs>
<clipPath id="clip0_761_7797">
<rect width="180" height="28" fill="white" transform="translate(0.5 0.5)"/>
</clipPath>
</defs>
</svg>
